<svg xmlns="http://www.w3.org/2000/svg" xmlns:oryx="http://oryx-editor.org" id="_E0DD51DE-190E-4864-B5EC-E15D1538CC90" width="748" height="261" xmlns:xlink="http://www.w3.org/1999/xlink" xmlns:svg="http://www.w3.org/2000/svg"><defs><marker id="_0D6CF881-3ED9-413B-B8C0-08B86FFF3428start" refX="1" refY="5" markerUnits="userSpaceOnUse" markerWidth="17" markerHeight="11" orient="auto" fill="#000000" stroke="#000000"> 	  		<path id="_0D6CF881-3ED9-413B-B8C0-08B86FFF3428conditional" d="M 0 5 L 8 0 L 16 5 L 8 10 L 0 5" fill="white" stroke="#000000" stroke-width="1" display="none"/> 			<path id="_0D6CF881-3ED9-413B-B8C0-08B86FFF3428default" d="M 5 0 L 11 10" fill="white" stroke="#000000" stroke-width="1" display="none"/> 	  	</marker><marker id="_0D6CF881-3ED9-413B-B8C0-08B86FFF3428end" refX="15" refY="6" markerUnits="userSpaceOnUse" markerWidth="15" markerHeight="12" orient="auto" fill="#000000" stroke="#000000"> 	  		<path id="_0D6CF881-3ED9-413B-B8C0-08B86FFF3428frame2" d="M 0 1 L 15 6 L 0 11z" fill="#000000" stroke="#000000" stroke-linejoin="round" stroke-width="2"/> 	  	</marker><marker id="_B4248520-51F6-4A03-9A0F-291DDBD0A386start" refX="1" refY="5" markerUnits="userSpaceOnUse" markerWidth="17" markerHeight="11" orient="auto" fill="#000000" stroke="#000000"> 	  		<path id="_B4248520-51F6-4A03-9A0F-291DDBD0A386conditional" d="M 0 5 L 8 0 L 16 5 L 8 10 L 0 5" fill="white" stroke="#000000" stroke-width="1" display="none"/> 			<path id="_B4248520-51F6-4A03-9A0F-291DDBD0A386default" d="M 5 0 L 11 10" fill="white" stroke="#000000" stroke-width="1" display="none"/> 	  	</marker><marker id="_B4248520-51F6-4A03-9A0F-291DDBD0A386end" refX="15" refY="6" markerUnits="userSpaceOnUse" markerWidth="15" markerHeight="12" orient="auto" fill="#000000" stroke="#000000"> 	  		<path id="_B4248520-51F6-4A03-9A0F-291DDBD0A386frame2" d="M 0 1 L 15 6 L 0 11z" fill="#000000" stroke="#000000" stroke-linejoin="round" stroke-width="2"/> 	  	</marker><marker id="_91EA174E-CDBF-4087-9063-C413FA6622F9start" refX="1" refY="5" markerUnits="userSpaceOnUse" markerWidth="17" markerHeight="11" orient="auto" fill="#000000" stroke="#000000"> 	  		<path id="_91EA174E-CDBF-4087-9063-C413FA6622F9conditional" d="M 0 5 L 8 0 L 16 5 L 8 10 L 0 5" fill="white" stroke="#000000" stroke-width="1" display="none"/> 			<path id="_91EA174E-CDBF-4087-9063-C413FA6622F9default" d="M 5 0 L 11 10" fill="white" stroke="#000000" stroke-width="1" display="none"/> 	  	</marker><marker id="_91EA174E-CDBF-4087-9063-C413FA6622F9end" refX="15" refY="6" markerUnits="userSpaceOnUse" markerWidth="15" markerHeight="12" orient="auto" fill="#000000" stroke="#000000"> 	  		<path id="_91EA174E-CDBF-4087-9063-C413FA6622F9frame2" d="M 0 1 L 15 6 L 0 11z" fill="#000000" stroke="#000000" stroke-linejoin="round" stroke-width="2"/> 	  	</marker><marker id="_0ED13555-C8D3-4F73-8FF6-EA3E8FE51140start" refX="1" refY="5" markerUnits="userSpaceOnUse" markerWidth="17" markerHeight="11" orient="auto" fill="#000000" stroke="#000000"> 	  		<path id="_0ED13555-C8D3-4F73-8FF6-EA3E8FE51140conditional" d="M 0 5 L 8 0 L 16 5 L 8 10 L 0 5" fill="white" stroke="#000000" stroke-width="1" display="none"/> 			<path id="_0ED13555-C8D3-4F73-8FF6-EA3E8FE51140default" d="M 5 0 L 11 10" fill="white" stroke="#000000" stroke-width="1" display="none"/> 	  	</marker><marker id="_0ED13555-C8D3-4F73-8FF6-EA3E8FE51140end" refX="15" refY="6" markerUnits="userSpaceOnUse" markerWidth="15" markerHeight="12" orient="auto" fill="#000000" stroke="#000000"> 	  		<path id="_0ED13555-C8D3-4F73-8FF6-EA3E8FE51140frame2" d="M 0 1 L 15 6 L 0 11z" fill="#000000" stroke="#000000" stroke-linejoin="round" stroke-width="2"/> 	  	</marker></defs><g stroke="none" font-family="Verdana, sans-serif" font-size-adjust="none" font-style="normal" font-variant="normal" font-weight="normal" line-heigth="normal" font-size="12"><g class="stencils" transform="translate(15, 16)"><g class="me"/><g class="children"><g id="_38B5994C-1364-42DE-B61F-8403A0FDD9E3" bpmn2nodeid="processStartEvent"><g class="stencils" transform="translate(120, 165)"><g class="me"><g pointer-events="fill" id="_38B5994C-1364-42DE-B61F-8403A0FDD9E3">        <defs id="_38B5994C-1364-42DE-B61F-8403A0FDD9E3__38B5994C-1364-42DE-B61F-8403A0FDD9E3_5"> 		<radialGradient id="_38B5994C-1364-42DE-B61F-8403A0FDD9E3background" cx="10%" cy="10%" r="100%" fx="10%" fy="10%"> 			<stop offset="0%" stop-color="#ffffff" stop-opacity="1" id="_38B5994C-1364-42DE-B61F-8403A0FDD9E3__38B5994C-1364-42DE-B61F-8403A0FDD9E3_6"/> 			<stop id="_38B5994C-1364-42DE-B61F-8403A0FDD9E3fill_el" offset="100%" stop-color="#9acd32" stop-opacity="1"/> 		</radialGradient> 	</defs> 	     <circle id="_38B5994C-1364-42DE-B61F-8403A0FDD9E3bg_frame" cx="15" cy="15" r="15" stroke="#000000" fill="url(#_38B5994C-1364-42DE-B61F-8403A0FDD9E3background) white" stroke-width="1" style="stroke-dasharray: 5.5, 3"/>      <circle id="_38B5994C-1364-42DE-B61F-8403A0FDD9E3frame" cx="15" cy="15" r="15" stroke="#000000" fill="none" stroke-width="1" display="inherit"/>  	<text font-size="11" id="_38B5994C-1364-42DE-B61F-8403A0FDD9E3text_name" x="15" y="32" oryx:align="top center" stroke="black" stroke-width="0pt" letter-spacing="-0.01px" fill="#000000" text-anchor="middle" transform="rotate(0 15 32)" visibility="inherit" oryx:fontSize="11"/>   </g></g><g class="children" style="overflow:hidden"/><g class="edge"/></g><g class="controls"><g class="dockers"/><g class="magnets" transform="translate(120, 165)"><g pointer-events="all" display="none" transform="translate(7, 7)"><circle cx="8" cy="8" r="4" stroke="none" fill="red" fill-opacity="0.3"/></g></g></g></g><g id="_04E4F675-16A0-40D7-8806-B3E2B7B3375A" bpmn2nodeid="_E5A7BE21-CD58-4A29-9ED2-80F60D380F18"><g class="stencils" transform="translate(195, 140)"><g class="me"><g pointer-events="fill" oryx:minimumSize="50 40" id="_04E4F675-16A0-40D7-8806-B3E2B7B3375A">   	<defs id="_04E4F675-16A0-40D7-8806-B3E2B7B3375A__04E4F675-16A0-40D7-8806-B3E2B7B3375A_17"> 		<radialGradient id="_04E4F675-16A0-40D7-8806-B3E2B7B3375Abackground" cx="10%" cy="10%" r="100%" fx="10%" fy="10%"> 			<stop offset="0%" stop-color="#ffffff" stop-opacity="1" id="_04E4F675-16A0-40D7-8806-B3E2B7B3375A__04E4F675-16A0-40D7-8806-B3E2B7B3375A_18"/> 			<stop id="_04E4F675-16A0-40D7-8806-B3E2B7B3375Afill_el" offset="100%" stop-color="#fafad2" stop-opacity="1"/> 		</radialGradient> 		<radialGradient id="_04E4F675-16A0-40D7-8806-B3E2B7B3375Aborderbackground" cx="10%" cy="10%" r="100%" fx="10%" fy="10%"> 			<stop offset="0%" stop-color="#ffffff" stop-opacity="1" id="_04E4F675-16A0-40D7-8806-B3E2B7B3375A__04E4F675-16A0-40D7-8806-B3E2B7B3375A_19"/> 			<stop id="_04E4F675-16A0-40D7-8806-B3E2B7B3375Afill_border" offset="100%" stop-color="#000000" stop-opacity="1" stroke="#000000"/> 		</radialGradient> 	</defs> 	 	<rect id="_04E4F675-16A0-40D7-8806-B3E2B7B3375Atext_frame" oryx:anchors="bottom top right left" x="1" y="1" width="94" height="79" rx="10" ry="10" stroke="none" stroke-width="0" fill="none"/> 	<rect id="_04E4F675-16A0-40D7-8806-B3E2B7B3375Abg_frame" oryx:resize="vertical horizontal" x="0" y="0" width="100" height="80" rx="10" ry="10" stroke="#000000" stroke-width="1" fill="url(#_04E4F675-16A0-40D7-8806-B3E2B7B3375Abackground) #ffffcc"/> 		<text font-size="12" id="_04E4F675-16A0-40D7-8806-B3E2B7B3375Atext_name" x="50" y="40" oryx:align="middle center" oryx:fittoelem="text_frame" stroke="black" text-anchor="middle" stroke-width="0pt" letter-spacing="-0.01px" fill="#000000" transform="rotate(0 50 40)" visibility="inherit" oryx:fontSize="12"/>     <g id="_04E4F675-16A0-40D7-8806-B3E2B7B3375AmanualTask" transform="scale(0.7,0.7) translate(8,8)" display="none">     	<path oryx:anchors="top left" id="_04E4F675-16A0-40D7-8806-B3E2B7B3375Aframe" style="opacity:1;fill:none;fill-opacity:1;stroke-width:1" d="M0.5,3.751l4.083-3.25c0,0,11.166,0.083,12.083,0.083s-2.417,2.917-1.5,2.917     s11.667,0,12.584,0c1.166,1.708-0.168,3.167-0.834,3.667s0.875,1.917-1,4.417c-0.75,0.25,0.75,1.875-1.333,3.333     c-1.167,0.583,0.583,1.542-1.25,2.833c-1.167,0-20.833,0.083-20.833,0.083l-2-1.333V3.751z" stroke="#000000"/> 		<path id="_04E4F675-16A0-40D7-8806-B3E2B7B3375Aframe2" oryx:anchors="top left" style="opacity:1;fill:none;stroke-width:2" d="M 13.5 7 L 27 7" stroke="#000000"/> 		<path id="_04E4F675-16A0-40D7-8806-B3E2B7B3375Aframe3" oryx:anchors="top left" style="opacity:1;fill:none;stroke-width:2" d="M 13.5 11 L 26 11" stroke="#000000"/> 		<path id="_04E4F675-16A0-40D7-8806-B3E2B7B3375Aframe4" oryx:anchors="top left" style="opacity:1;fill:none;stroke-width:1.5" d="M 14 14.5 L 25 14.5" stroke="#000000"/> 		<path id="_04E4F675-16A0-40D7-8806-B3E2B7B3375Aframe5" oryx:anchors="top left" style="opacity:1;fill:none;stroke-width:1.5" d="M 8.2 3.1 L 15 3.1" stroke="#000000"/> 	</g> 	 	<g id="_04E4F675-16A0-40D7-8806-B3E2B7B3375AbusinessRuleTask" transform="scale(0.7,0.7) translate(8,8)" display="none"> 		<rect id="_04E4F675-16A0-40D7-8806-B3E2B7B3375Aframe6" oryx:anchors="top left" x="0" y="0" width="22" height="4" style="opacity:1;fill:#B3B1B3;fill-opacity:1;" stroke="#000000"/> 		<rect id="_04E4F675-16A0-40D7-8806-B3E2B7B3375Aframe7" oryx:anchors="top left" x="0" y="4" style="opacity:1;fill:none;" width="22" height="12" stroke="#000000"/> 		<path id="_04E4F675-16A0-40D7-8806-B3E2B7B3375Aframe8" oryx:anchors="top left" style="opacity:1;fill:none;" d="M 0 10 L 22 10" stroke="#000000"/> 		<path id="_04E4F675-16A0-40D7-8806-B3E2B7B3375Aframe9" oryx:anchors="top left" style="opacity:1; fill:none;" d="M 7 4 L 7 16" stroke="#000000"/> 	</g> 	 	<g id="_04E4F675-16A0-40D7-8806-B3E2B7B3375AscriptTask" transform="scale(0.7,0.7) translate(8,8)" display="none"> 		<path oryx:anchors="top left" id="_04E4F675-16A0-40D7-8806-B3E2B7B3375Aframe10" style="opacity:1;fill:none;" stroke="#000000" d="M6.402,0.5h14.5c0,0-5.833,2.833-5.833,5.583s4.417,6,4.417,9.167    s-4.167,5.083-4.167,5.083H0.235c0,0,5-2.667,5-5s-4.583-6.75-4.583-9.25S6.402,0.5,6.402,0.5z"/> 		<path oryx:anchors="top left" id="_04E4F675-16A0-40D7-8806-B3E2B7B3375Aframe11" style="opacity:1;fill:none;stroke-width:1.5" d="M 3.5 4.5 L 13.5 4.5" stroke="#000000"/> 		<path oryx:anchors="top left" id="_04E4F675-16A0-40D7-8806-B3E2B7B3375Aframe12" style="opacity:1;fill:none;stroke-width:1.5" d="M 3.8 8.5 L 13.8 8.5" stroke="#000000"/> 		<path oryx:anchors="top left" id="_04E4F675-16A0-40D7-8806-B3E2B7B3375Aframe13" style="opacity:1;fill:none;stroke-width:1.5" d="M 6.3 12.5 L 16.3 12.5" stroke="#000000"/> 		<path oryx:anchors="top left" id="_04E4F675-16A0-40D7-8806-B3E2B7B3375Aframe14" style="opacity:1;fill:none;stroke-width:1.5" d="M 6.5 16.5 L 16.5 16.5" stroke="#000000"/> 	</g> 	 	<g id="_04E4F675-16A0-40D7-8806-B3E2B7B3375AuserTask" transform="scale(0.7,0.7) translate(8,8)" display="inherit"> 		<path id="_04E4F675-16A0-40D7-8806-B3E2B7B3375Aframe15" oryx:anchors="top left" style="opacity:1;fill:#F4F6F7" stroke="#000000" d="M0.585,24.167h24.083v-7.833c0,0-2.333-3.917-7.083-5.167h-9.25    c-4.417,1.333-7.833,5.75-7.833,5.75L0.585,24.167z"/> 		<path id="_04E4F675-16A0-40D7-8806-B3E2B7B3375Aframe16" oryx:anchors="top left" style="opacity:1;fill:none" d="M 6 20 L 6 24" stroke="#000000"/> 		<path id="_04E4F675-16A0-40D7-8806-B3E2B7B3375Aframe17" oryx:anchors="top left" style="opacity:1;fill:none" d="M 20 20 L 20 24" stroke="#000000"/> 		<circle id="_04E4F675-16A0-40D7-8806-B3E2B7B3375Aframe18" oryx:anchors="top left" fill="black" cx="13.002" cy="5.916" r="5.417" stroke="#000000"/> 		<path id="_04E4F675-16A0-40D7-8806-B3E2B7B3375Aframe19" oryx:anchors="top left" style="opacity:1;fill:#F0EFF0;" stroke="#000000" d="M8.043,7.083c0,0,2.814-2.426,5.376-1.807s4.624-0.693,4.624-0.693    c0.25,1.688,0.042,3.75-1.458,5.584c0,0,1.083,0.75,1.083,1.5s0.125,1.875-1,3s-5.5,1.25-6.75,0S8.668,12.834,8.668,12    s0.583-1.25,1.25-1.917C8.835,9.5,7.419,7.708,8.043,7.083z"/> 	</g> 	 	<g id="_04E4F675-16A0-40D7-8806-B3E2B7B3375AserviceTask" transform="scale(0.7,0.7) translate(8,8)" display="none"> 		<polygon oryx:anchors="top left" id="_04E4F675-16A0-40D7-8806-B3E2B7B3375Aframe20" style="opacity:1;fill:#ffffff" stroke="#000000" points="15.392,5.064 17.954,2.502 20.347,4.895 17.786,7.455     18.729,9.732 22.353,9.732 22.353,13.115 18.731,13.115 17.788,15.392 20.351,17.955 17.958,20.347 15.397,17.786 13.12,18.729     13.12,22.353 9.737,22.353 9.737,18.731 7.46,17.788 4.897,20.35 2.506,17.958 5.066,15.397 4.124,13.12 0.5,13.12 0.5,9.737     4.121,9.737 5.065,7.461 2.503,4.898 4.895,2.506 7.455,5.066 9.732,4.125 9.732,0.5 13.116,0.5 13.116,4.121 "/> 		<circle oryx:anchors="top left" id="_04E4F675-16A0-40D7-8806-B3E2B7B3375Aframe21" style="opacity:1;fill:none" stroke="#000000" cx="11.427" cy="11.426" r="3.714"/> 		<polygon oryx:anchors="top left" id="_04E4F675-16A0-40D7-8806-B3E2B7B3375Aframe22" style="opacity:1;fill:#ffffff" stroke="#000000" points="21.392,11.064 23.954,8.502 26.347,10.895 23.786,13.455     24.729,15.732 28.353,15.732 28.353,19.115 24.731,19.115 23.788,21.392 26.351,23.955 23.958,26.347 21.397,23.786 19.12,24.729     19.12,28.353 15.737,28.353 15.737,24.731 13.46,23.788 10.897,26.35 8.506,23.958 11.066,21.397 10.124,19.12 6.5,19.12     6.5,15.737 10.121,15.737 11.065,13.461 8.503,10.898 10.895,8.506 13.455,11.066 15.732,10.125 15.732,6.5 19.116,6.5     19.116,10.121 "/> 		<circle oryx:anchors="top left" id="_04E4F675-16A0-40D7-8806-B3E2B7B3375Aframe23" style="opacity:1;fill:none;" stroke="#000000" cx="17.427" cy="17.426" r="3.714"/> 	</g> 	 	<g id="_04E4F675-16A0-40D7-8806-B3E2B7B3375AsendTask" display="none"> 		<path id="_04E4F675-16A0-40D7-8806-B3E2B7B3375Astframe24" oryx:anchors="left top" stroke="#FFFFFF" fill="black" stroke-width="1" d="M8,11 L8,21 L24,21 L24,11 L16,17z"/> 		<path id="_04E4F675-16A0-40D7-8806-B3E2B7B3375Astframe25" oryx:anchors="left top" stroke="#FFFFFF" fill="black" stroke-width="1" d="M7,10 L16,17 L25 10z"/> 	</g> 	 	<g id="_04E4F675-16A0-40D7-8806-B3E2B7B3375AreceiveTask" display="none"> 		<path id="_04E4F675-16A0-40D7-8806-B3E2B7B3375Aframe26" oryx:anchors="left top" stroke="#000000" fill="none" stroke-width="1" d="M8,11 L8,21 L24,21 L24,11z M8,11 L16,17 L24,11"/> 	</g> 	 	<g id="_04E4F675-16A0-40D7-8806-B3E2B7B3375Anone" display="none"/>  	<g id="_04E4F675-16A0-40D7-8806-B3E2B7B3375Asequential" display="none">         <path oryx:anchors="bottom" fill="none" stroke="#000000" stroke-width="2" d="M46,76h10M46,72h10 M46,68h10" id="_04E4F675-16A0-40D7-8806-B3E2B7B3375A__04E4F675-16A0-40D7-8806-B3E2B7B3375A_20"/>     </g>   </g></g><g class="children" style="overflow:hidden"/><g class="edge"/></g><g class="controls"><g class="dockers"/><g class="magnets" transform="translate(195, 140)"><g pointer-events="all" display="none" transform="translate(-7, 12)"><circle cx="8" cy="8" r="4" stroke="none" fill="red" fill-opacity="0.3"/></g><g pointer-events="all" display="none" transform="translate(-7, 32)"><circle cx="8" cy="8" r="4" stroke="none" fill="red" fill-opacity="0.3"/></g><g pointer-events="all" display="none" transform="translate(-7, 52)"><circle cx="8" cy="8" r="4" stroke="none" fill="red" fill-opacity="0.3"/></g><g pointer-events="all" display="none" transform="translate(17, 71)"><circle cx="8" cy="8" r="4" stroke="none" fill="red" fill-opacity="0.3"/></g><g pointer-events="all" display="none" transform="translate(42, 71)"><circle cx="8" cy="8" r="4" stroke="none" fill="red" fill-opacity="0.3"/></g><g pointer-events="all" display="none" transform="translate(67, 71)"><circle cx="8" cy="8" r="4" stroke="none" fill="red" fill-opacity="0.3"/></g><g pointer-events="all" display="none" transform="translate(91, 12)"><circle cx="8" cy="8" r="4" stroke="none" fill="red" fill-opacity="0.3"/></g><g pointer-events="all" display="none" transform="translate(91, 32)"><circle cx="8" cy="8" r="4" stroke="none" fill="red" fill-opacity="0.3"/></g><g pointer-events="all" display="none" transform="translate(91, 52)"><circle cx="8" cy="8" r="4" stroke="none" fill="red" fill-opacity="0.3"/></g><g pointer-events="all" display="none" transform="translate(17, -7)"><circle cx="8" cy="8" r="4" stroke="none" fill="red" fill-opacity="0.3"/></g><g pointer-events="all" display="none" transform="translate(42, -7)"><circle cx="8" cy="8" r="4" stroke="none" fill="red" fill-opacity="0.3"/></g><g pointer-events="all" display="none" transform="translate(67, -7)"><circle cx="8" cy="8" r="4" stroke="none" fill="red" fill-opacity="0.3"/></g><g pointer-events="all" display="none" transform="translate(42, 32)"><circle cx="8" cy="8" r="4" stroke="none" fill="red" fill-opacity="0.3"/></g></g></g></g><g id="_0E7EC1B7-4BF7-4B43-95E0-A571A0748D3B" bpmn2nodeid="_2ACDCFB0-5253-4082-BDCF-D181C7D85480"><g class="stencils" transform="translate(390, 140)"><g class="me"><g pointer-events="fill" oryx:minimumSize="80 60" id="_0E7EC1B7-4BF7-4B43-95E0-A571A0748D3B">   	<defs id="_0E7EC1B7-4BF7-4B43-95E0-A571A0748D3B__0E7EC1B7-4BF7-4B43-95E0-A571A0748D3B_17"> 		<radialGradient id="_0E7EC1B7-4BF7-4B43-95E0-A571A0748D3Bbackground" cx="10%" cy="10%" r="100%" fx="10%" fy="10%"> 			<stop offset="0%" stop-color="#ffffff" stop-opacity="1" id="_0E7EC1B7-4BF7-4B43-95E0-A571A0748D3B__0E7EC1B7-4BF7-4B43-95E0-A571A0748D3B_18"/> 			<stop id="_0E7EC1B7-4BF7-4B43-95E0-A571A0748D3Bfill_el" offset="100%" stop-color="#fafad2" stop-opacity="1"/> 		</radialGradient> 	</defs> 	<rect id="_0E7EC1B7-4BF7-4B43-95E0-A571A0748D3Btext_frame" oryx:anchors="bottom top right left" x="1" y="1" width="94" height="79" rx="10" ry="10" stroke="none" stroke-width="0" fill="none"/> 	<rect id="_0E7EC1B7-4BF7-4B43-95E0-A571A0748D3Bbg_frame" oryx:anchors="bottom top right left" x="0" y="0" width="100" height="80" rx="10" ry="10" stroke="#000000" stroke-width="1" fill="url(#_0E7EC1B7-4BF7-4B43-95E0-A571A0748D3Bbackground) #ffffcc"/> 	<rect id="_0E7EC1B7-4BF7-4B43-95E0-A571A0748D3Bframe" oryx:resize="vertical horizontal" oryx:anchors="bottom top right left" x="0" y="0" width="100" height="80" rx="10" ry="10" stroke="#000000" stroke-width="4" fill="none"/> 	<rect id="_0E7EC1B7-4BF7-4B43-95E0-A571A0748D3Bframe2" oryx:anchors="top bottom left right" oryx:resize="vertical horizontal" x="2.5" y="2.5" width="95" height="75" rx="8" ry="8" stroke="#000000" stroke-width="1" fill="none"/>     	<text font-size="12" id="_0E7EC1B7-4BF7-4B43-95E0-A571A0748D3Btext_name" x="50" y="40" oryx:align="middle center" oryx:fittoelem="text_frame" stroke="black" stroke-width="0pt" letter-spacing="-0.01px" fill="#000000" text-anchor="middle" transform="rotate(0 50 40)" visibility="inherit" oryx:fontSize="12"/>          <a id="_0E7EC1B7-4BF7-4B43-95E0-A571A0748D3Bpimg" onclick="ORYX.EDITOR._pluginFacade.raiseEvent({                                                                          type 		: ORYX.CONFIG.EVENT_NOTIFICATION_SHOW,                                                                                    ntype		: 'error',                                                                                                                msg         : 'No Callable Element specified.',                                                                                        title       : ''                                                                                                                   });" xlink:href="">	 	<g id="_0E7EC1B7-4BF7-4B43-95E0-A571A0748D3Bb" oryx:anchors="bottom"> 		<rect id="_0E7EC1B7-4BF7-4B43-95E0-A571A0748D3Bframe3" oryx:anchors="bottom" x="44" y="66" width="14" height="14" fill="none" stroke="#000000" stroke-width="1"/> 		<path id="_0E7EC1B7-4BF7-4B43-95E0-A571A0748D3Bframe4" oryx:anchors="bottom" fill="none" stroke="#000000" d="M51 68 v10 M 46 73 h10" stroke-width="1"/> 	</g> 	</a> 	<g id="_0E7EC1B7-4BF7-4B43-95E0-A571A0748D3Bnone"/> 	undefined 	  	undefined 	undefined 	 	 	undefined 	undefined   </g></g><g class="children" style="overflow:hidden"/><g class="edge"/></g><g class="controls"><g class="dockers"/><g class="magnets" transform="translate(390, 140)"><g pointer-events="all" display="none" transform="translate(-7, 12)"><circle cx="8" cy="8" r="4" stroke="none" fill="red" fill-opacity="0.3"/></g><g pointer-events="all" display="none" transform="translate(-7, 32)"><circle cx="8" cy="8" r="4" stroke="none" fill="red" fill-opacity="0.3"/></g><g pointer-events="all" display="none" transform="translate(-7, 52)"><circle cx="8" cy="8" r="4" stroke="none" fill="red" fill-opacity="0.3"/></g><g pointer-events="all" display="none" transform="translate(17, 71)"><circle cx="8" cy="8" r="4" stroke="none" fill="red" fill-opacity="0.3"/></g><g pointer-events="all" display="none" transform="translate(42, 71)"><circle cx="8" cy="8" r="4" stroke="none" fill="red" fill-opacity="0.3"/></g><g pointer-events="all" display="none" transform="translate(67, 71)"><circle cx="8" cy="8" r="4" stroke="none" fill="red" fill-opacity="0.3"/></g><g pointer-events="all" display="none" transform="translate(91, 12)"><circle cx="8" cy="8" r="4" stroke="none" fill="red" fill-opacity="0.3"/></g><g pointer-events="all" display="none" transform="translate(91, 32)"><circle cx="8" cy="8" r="4" stroke="none" fill="red" fill-opacity="0.3"/></g><g pointer-events="all" display="none" transform="translate(91, 52)"><circle cx="8" cy="8" r="4" stroke="none" fill="red" fill-opacity="0.3"/></g><g pointer-events="all" display="none" transform="translate(17, -7)"><circle cx="8" cy="8" r="4" stroke="none" fill="red" fill-opacity="0.3"/></g><g pointer-events="all" display="none" transform="translate(42, -7)"><circle cx="8" cy="8" r="4" stroke="none" fill="red" fill-opacity="0.3"/></g><g pointer-events="all" display="none" transform="translate(67, -7)"><circle cx="8" cy="8" r="4" stroke="none" fill="red" fill-opacity="0.3"/></g><g pointer-events="all" display="none" transform="translate(42, 32)"><circle cx="8" cy="8" r="4" stroke="none" fill="red" fill-opacity="0.3"/></g></g></g></g><g id="_77348FAA-8CC6-461D-BA6C-41351845FD64" bpmn2nodeid="_2C869AB9-6937-419D-9795-9585145A2AF4"><g class="stencils" transform="translate(535, 140)"><g class="me"><g pointer-events="fill" oryx:minimumSize="50 40" id="_77348FAA-8CC6-461D-BA6C-41351845FD64">   	<defs id="_77348FAA-8CC6-461D-BA6C-41351845FD64__77348FAA-8CC6-461D-BA6C-41351845FD64_17"> 		<radialGradient id="_77348FAA-8CC6-461D-BA6C-41351845FD64background" cx="10%" cy="10%" r="100%" fx="10%" fy="10%"> 			<stop offset="0%" stop-color="#ffffff" stop-opacity="1" id="_77348FAA-8CC6-461D-BA6C-41351845FD64__77348FAA-8CC6-461D-BA6C-41351845FD64_18"/> 			<stop id="_77348FAA-8CC6-461D-BA6C-41351845FD64fill_el" offset="100%" stop-color="#fafad2" stop-opacity="1"/> 		</radialGradient> 		<radialGradient id="_77348FAA-8CC6-461D-BA6C-41351845FD64borderbackground" cx="10%" cy="10%" r="100%" fx="10%" fy="10%"> 			<stop offset="0%" stop-color="#ffffff" stop-opacity="1" id="_77348FAA-8CC6-461D-BA6C-41351845FD64__77348FAA-8CC6-461D-BA6C-41351845FD64_19"/> 			<stop id="_77348FAA-8CC6-461D-BA6C-41351845FD64fill_border" offset="100%" stop-color="#000000" stop-opacity="1" stroke="#000000"/> 		</radialGradient> 	</defs> 	 	<rect id="_77348FAA-8CC6-461D-BA6C-41351845FD64text_frame" oryx:anchors="bottom top right left" x="1" y="1" width="94" height="79" rx="10" ry="10" stroke="none" stroke-width="0" fill="none"/> 	<rect id="_77348FAA-8CC6-461D-BA6C-41351845FD64bg_frame" oryx:resize="vertical horizontal" x="0" y="0" width="100" height="80" rx="10" ry="10" stroke="#000000" stroke-width="1" fill="url(#_77348FAA-8CC6-461D-BA6C-41351845FD64background) #ffffcc"/> 		<text font-size="12" id="_77348FAA-8CC6-461D-BA6C-41351845FD64text_name" x="50" y="40" oryx:align="middle center" oryx:fittoelem="text_frame" stroke="black" text-anchor="middle" stroke-width="0pt" letter-spacing="-0.01px" fill="#000000" transform="rotate(0 50 40)" visibility="inherit" oryx:fontSize="12"/>     <g id="_77348FAA-8CC6-461D-BA6C-41351845FD64manualTask" transform="scale(0.7,0.7) translate(8,8)" display="none">     	<path oryx:anchors="top left" id="_77348FAA-8CC6-461D-BA6C-41351845FD64frame" style="opacity:1;fill:none;fill-opacity:1;stroke-width:1" d="M0.5,3.751l4.083-3.25c0,0,11.166,0.083,12.083,0.083s-2.417,2.917-1.5,2.917     s11.667,0,12.584,0c1.166,1.708-0.168,3.167-0.834,3.667s0.875,1.917-1,4.417c-0.75,0.25,0.75,1.875-1.333,3.333     c-1.167,0.583,0.583,1.542-1.25,2.833c-1.167,0-20.833,0.083-20.833,0.083l-2-1.333V3.751z" stroke="#000000"/> 		<path id="_77348FAA-8CC6-461D-BA6C-41351845FD64frame2" oryx:anchors="top left" style="opacity:1;fill:none;stroke-width:2" d="M 13.5 7 L 27 7" stroke="#000000"/> 		<path id="_77348FAA-8CC6-461D-BA6C-41351845FD64frame3" oryx:anchors="top left" style="opacity:1;fill:none;stroke-width:2" d="M 13.5 11 L 26 11" stroke="#000000"/> 		<path id="_77348FAA-8CC6-461D-BA6C-41351845FD64frame4" oryx:anchors="top left" style="opacity:1;fill:none;stroke-width:1.5" d="M 14 14.5 L 25 14.5" stroke="#000000"/> 		<path id="_77348FAA-8CC6-461D-BA6C-41351845FD64frame5" oryx:anchors="top left" style="opacity:1;fill:none;stroke-width:1.5" d="M 8.2 3.1 L 15 3.1" stroke="#000000"/> 	</g> 	 	<g id="_77348FAA-8CC6-461D-BA6C-41351845FD64businessRuleTask" transform="scale(0.7,0.7) translate(8,8)" display="none"> 		<rect id="_77348FAA-8CC6-461D-BA6C-41351845FD64frame6" oryx:anchors="top left" x="0" y="0" width="22" height="4" style="opacity:1;fill:#B3B1B3;fill-opacity:1;" stroke="#000000"/> 		<rect id="_77348FAA-8CC6-461D-BA6C-41351845FD64frame7" oryx:anchors="top left" x="0" y="4" style="opacity:1;fill:none;" width="22" height="12" stroke="#000000"/> 		<path id="_77348FAA-8CC6-461D-BA6C-41351845FD64frame8" oryx:anchors="top left" style="opacity:1;fill:none;" d="M 0 10 L 22 10" stroke="#000000"/> 		<path id="_77348FAA-8CC6-461D-BA6C-41351845FD64frame9" oryx:anchors="top left" style="opacity:1; fill:none;" d="M 7 4 L 7 16" stroke="#000000"/> 	</g> 	 	<g id="_77348FAA-8CC6-461D-BA6C-41351845FD64scriptTask" transform="scale(0.7,0.7) translate(8,8)" display="none"> 		<path oryx:anchors="top left" id="_77348FAA-8CC6-461D-BA6C-41351845FD64frame10" style="opacity:1;fill:none;" stroke="#000000" d="M6.402,0.5h14.5c0,0-5.833,2.833-5.833,5.583s4.417,6,4.417,9.167    s-4.167,5.083-4.167,5.083H0.235c0,0,5-2.667,5-5s-4.583-6.75-4.583-9.25S6.402,0.5,6.402,0.5z"/> 		<path oryx:anchors="top left" id="_77348FAA-8CC6-461D-BA6C-41351845FD64frame11" style="opacity:1;fill:none;stroke-width:1.5" d="M 3.5 4.5 L 13.5 4.5" stroke="#000000"/> 		<path oryx:anchors="top left" id="_77348FAA-8CC6-461D-BA6C-41351845FD64frame12" style="opacity:1;fill:none;stroke-width:1.5" d="M 3.8 8.5 L 13.8 8.5" stroke="#000000"/> 		<path oryx:anchors="top left" id="_77348FAA-8CC6-461D-BA6C-41351845FD64frame13" style="opacity:1;fill:none;stroke-width:1.5" d="M 6.3 12.5 L 16.3 12.5" stroke="#000000"/> 		<path oryx:anchors="top left" id="_77348FAA-8CC6-461D-BA6C-41351845FD64frame14" style="opacity:1;fill:none;stroke-width:1.5" d="M 6.5 16.5 L 16.5 16.5" stroke="#000000"/> 	</g> 	 	<g id="_77348FAA-8CC6-461D-BA6C-41351845FD64userTask" transform="scale(0.7,0.7) translate(8,8)" display="none"> 		<path id="_77348FAA-8CC6-461D-BA6C-41351845FD64frame15" oryx:anchors="top left" style="opacity:1;fill:#F4F6F7" stroke="#000000" d="M0.585,24.167h24.083v-7.833c0,0-2.333-3.917-7.083-5.167h-9.25    c-4.417,1.333-7.833,5.75-7.833,5.75L0.585,24.167z"/> 		<path id="_77348FAA-8CC6-461D-BA6C-41351845FD64frame16" oryx:anchors="top left" style="opacity:1;fill:none" d="M 6 20 L 6 24" stroke="#000000"/> 		<path id="_77348FAA-8CC6-461D-BA6C-41351845FD64frame17" oryx:anchors="top left" style="opacity:1;fill:none" d="M 20 20 L 20 24" stroke="#000000"/> 		<circle id="_77348FAA-8CC6-461D-BA6C-41351845FD64frame18" oryx:anchors="top left" fill="black" cx="13.002" cy="5.916" r="5.417" stroke="#000000"/> 		<path id="_77348FAA-8CC6-461D-BA6C-41351845FD64frame19" oryx:anchors="top left" style="opacity:1;fill:#F0EFF0;" stroke="#000000" d="M8.043,7.083c0,0,2.814-2.426,5.376-1.807s4.624-0.693,4.624-0.693    c0.25,1.688,0.042,3.75-1.458,5.584c0,0,1.083,0.75,1.083,1.5s0.125,1.875-1,3s-5.5,1.25-6.75,0S8.668,12.834,8.668,12    s0.583-1.25,1.25-1.917C8.835,9.5,7.419,7.708,8.043,7.083z"/> 	</g> 	 	<g id="_77348FAA-8CC6-461D-BA6C-41351845FD64serviceTask" transform="scale(0.7,0.7) translate(8,8)" display="none"> 		<polygon oryx:anchors="top left" id="_77348FAA-8CC6-461D-BA6C-41351845FD64frame20" style="opacity:1;fill:#ffffff" stroke="#000000" points="15.392,5.064 17.954,2.502 20.347,4.895 17.786,7.455     18.729,9.732 22.353,9.732 22.353,13.115 18.731,13.115 17.788,15.392 20.351,17.955 17.958,20.347 15.397,17.786 13.12,18.729     13.12,22.353 9.737,22.353 9.737,18.731 7.46,17.788 4.897,20.35 2.506,17.958 5.066,15.397 4.124,13.12 0.5,13.12 0.5,9.737     4.121,9.737 5.065,7.461 2.503,4.898 4.895,2.506 7.455,5.066 9.732,4.125 9.732,0.5 13.116,0.5 13.116,4.121 "/> 		<circle oryx:anchors="top left" id="_77348FAA-8CC6-461D-BA6C-41351845FD64frame21" style="opacity:1;fill:none" stroke="#000000" cx="11.427" cy="11.426" r="3.714"/> 		<polygon oryx:anchors="top left" id="_77348FAA-8CC6-461D-BA6C-41351845FD64frame22" style="opacity:1;fill:#ffffff" stroke="#000000" points="21.392,11.064 23.954,8.502 26.347,10.895 23.786,13.455     24.729,15.732 28.353,15.732 28.353,19.115 24.731,19.115 23.788,21.392 26.351,23.955 23.958,26.347 21.397,23.786 19.12,24.729     19.12,28.353 15.737,28.353 15.737,24.731 13.46,23.788 10.897,26.35 8.506,23.958 11.066,21.397 10.124,19.12 6.5,19.12     6.5,15.737 10.121,15.737 11.065,13.461 8.503,10.898 10.895,8.506 13.455,11.066 15.732,10.125 15.732,6.5 19.116,6.5     19.116,10.121 "/> 		<circle oryx:anchors="top left" id="_77348FAA-8CC6-461D-BA6C-41351845FD64frame23" style="opacity:1;fill:none;" stroke="#000000" cx="17.427" cy="17.426" r="3.714"/> 	</g> 	 	<g id="_77348FAA-8CC6-461D-BA6C-41351845FD64sendTask" display="none"> 		<path id="_77348FAA-8CC6-461D-BA6C-41351845FD64stframe24" oryx:anchors="left top" stroke="#FFFFFF" fill="black" stroke-width="1" d="M8,11 L8,21 L24,21 L24,11 L16,17z"/> 		<path id="_77348FAA-8CC6-461D-BA6C-41351845FD64stframe25" oryx:anchors="left top" stroke="#FFFFFF" fill="black" stroke-width="1" d="M7,10 L16,17 L25 10z"/> 	</g> 	 	<g id="_77348FAA-8CC6-461D-BA6C-41351845FD64receiveTask" display="none"> 		<path id="_77348FAA-8CC6-461D-BA6C-41351845FD64frame26" oryx:anchors="left top" stroke="#000000" fill="none" stroke-width="1" d="M8,11 L8,21 L24,21 L24,11z M8,11 L16,17 L24,11"/> 	</g> 	 	<g id="_77348FAA-8CC6-461D-BA6C-41351845FD64none" display="inherit"/>  	<g id="_77348FAA-8CC6-461D-BA6C-41351845FD64sequential" display="none">         <path oryx:anchors="bottom" fill="none" stroke="#000000" stroke-width="2" d="M46,76h10M46,72h10 M46,68h10" id="_77348FAA-8CC6-461D-BA6C-41351845FD64__77348FAA-8CC6-461D-BA6C-41351845FD64_20"/>     </g>   </g></g><g class="children" style="overflow:hidden"/><g class="edge"/></g><g class="controls"><g class="dockers"/><g class="magnets" transform="translate(535, 140)"><g pointer-events="all" display="none" transform="translate(-7, 12)"><circle cx="8" cy="8" r="4" stroke="none" fill="red" fill-opacity="0.3"/></g><g pointer-events="all" display="none" transform="translate(-7, 32)"><circle cx="8" cy="8" r="4" stroke="none" fill="red" fill-opacity="0.3"/></g><g pointer-events="all" display="none" transform="translate(-7, 52)"><circle cx="8" cy="8" r="4" stroke="none" fill="red" fill-opacity="0.3"/></g><g pointer-events="all" display="none" transform="translate(17, 71)"><circle cx="8" cy="8" r="4" stroke="none" fill="red" fill-opacity="0.3"/></g><g pointer-events="all" display="none" transform="translate(42, 71)"><circle cx="8" cy="8" r="4" stroke="none" fill="red" fill-opacity="0.3"/></g><g pointer-events="all" display="none" transform="translate(67, 71)"><circle cx="8" cy="8" r="4" stroke="none" fill="red" fill-opacity="0.3"/></g><g pointer-events="all" display="none" transform="translate(91, 12)"><circle cx="8" cy="8" r="4" stroke="none" fill="red" fill-opacity="0.3"/></g><g pointer-events="all" display="none" transform="translate(91, 32)"><circle cx="8" cy="8" r="4" stroke="none" fill="red" fill-opacity="0.3"/></g><g pointer-events="all" display="none" transform="translate(91, 52)"><circle cx="8" cy="8" r="4" stroke="none" fill="red" fill-opacity="0.3"/></g><g pointer-events="all" display="none" transform="translate(17, -7)"><circle cx="8" cy="8" r="4" stroke="none" fill="red" fill-opacity="0.3"/></g><g pointer-events="all" display="none" transform="translate(42, -7)"><circle cx="8" cy="8" r="4" stroke="none" fill="red" fill-opacity="0.3"/></g><g pointer-events="all" display="none" transform="translate(67, -7)"><circle cx="8" cy="8" r="4" stroke="none" fill="red" fill-opacity="0.3"/></g><g pointer-events="all" display="none" transform="translate(42, 32)"><circle cx="8" cy="8" r="4" stroke="none" fill="red" fill-opacity="0.3"/></g></g></g></g><g id="_58028860-AF2B-40E2-98D0-D1AB81396F82" bpmn2nodeid="_3FA6C0A0-A2FA-44F4-A394-263216B8D635"><g class="stencils" transform="translate(680, 166)"><g class="me"><g pointer-events="fill" id="_58028860-AF2B-40E2-98D0-D1AB81396F82">      <defs id="_58028860-AF2B-40E2-98D0-D1AB81396F82__58028860-AF2B-40E2-98D0-D1AB81396F82_5"> 		<radialGradient id="_58028860-AF2B-40E2-98D0-D1AB81396F82background" cx="10%" cy="10%" r="100%" fx="10%" fy="10%"> 			<stop offset="0%" stop-color="#ffffff" stop-opacity="1" id="_58028860-AF2B-40E2-98D0-D1AB81396F82__58028860-AF2B-40E2-98D0-D1AB81396F82_6"/> 			<stop id="_58028860-AF2B-40E2-98D0-D1AB81396F82fill_el" offset="100%" stop-color="#ff6347" stop-opacity="1"/> 		</radialGradient> 	</defs> 	     <circle id="_58028860-AF2B-40E2-98D0-D1AB81396F82bg_frame" cx="14" cy="14" r="14" stroke="#000000" fill="url(#_58028860-AF2B-40E2-98D0-D1AB81396F82background) white" stroke-width="3"/> 	<text font-size="11" id="_58028860-AF2B-40E2-98D0-D1AB81396F82text_name" x="14" y="30" oryx:align="top center" stroke="black" stroke-width="0pt" letter-spacing="-0.01px" fill="#000000" text-anchor="middle" transform="rotate(0 14 30)" visibility="inherit" oryx:fontSize="11"/>   </g></g><g class="children" style="overflow:hidden"/><g class="edge"/></g><g class="controls"><g class="dockers"/><g class="magnets" transform="translate(680, 166)"><g pointer-events="all" display="none" transform="translate(6, 6)"><circle cx="8" cy="8" r="4" stroke="none" fill="red" fill-opacity="0.3"/></g></g></g></g></g><g class="edge"><g id="_0D6CF881-3ED9-413B-B8C0-08B86FFF3428" bpmn2nodeid="_3F2AC722-D7E3-4DFE-B863-2033E3EF4288"><g class="stencils"><g class="me"><g pointer-events="painted" bpmn2nodeid="_3F2AC722-D7E3-4DFE-B863-2033E3EF4288"><path id="_0D6CF881-3ED9-413B-B8C0-08B86FFF3428_1" d="M150.609375 180L194.15625 180 " stroke="#000000" fill="none" stroke-width="2" stroke-linecap="round" stroke-linejoin="round" marker-start="url(#_0D6CF881-3ED9-413B-B8C0-08B86FFF3428start)" marker-end="url(#_0D6CF881-3ED9-413B-B8C0-08B86FFF3428end)"/></g><text id="_0D6CF881-3ED9-413B-B8C0-08B86FFF3428text_name" font-size="12" x="164.609375" y="166" oryx:edgePosition="startTop" stroke-width="0pt" letter-spacing="-0.01px" fill="#000000" text-anchor="start" transform="rotate(360 150.609375 180)" visibility="inherit" oryx:fontSize="12"/></g><g class="children" style="overflow:hidden"/><g class="edge"/></g><g class="controls"><g class="dockers"/><g class="magnets"/></g></g><g id="_B4248520-51F6-4A03-9A0F-291DDBD0A386" bpmn2nodeid="_2D32F3F3-8A25-4826-B280-8E5FFD266BE0"><g class="stencils"><g class="me"><g pointer-events="painted" bpmn2nodeid="_2D32F3F3-8A25-4826-B280-8E5FFD266BE0"><path id="_B4248520-51F6-4A03-9A0F-291DDBD0A386_1" d="M295.51171875 180L389.48828125 180 " stroke="#000000" fill="none" stroke-width="2" stroke-linecap="round" stroke-linejoin="round" marker-start="url(#_B4248520-51F6-4A03-9A0F-291DDBD0A386start)" marker-end="url(#_B4248520-51F6-4A03-9A0F-291DDBD0A386end)"/></g><text id="_B4248520-51F6-4A03-9A0F-291DDBD0A386text_name" font-size="12" x="309.51171875" y="166" oryx:edgePosition="startTop" stroke-width="0pt" letter-spacing="-0.01px" fill="#000000" text-anchor="start" transform="rotate(360 295.51171875 180)" visibility="inherit" oryx:fontSize="12"/></g><g class="children" style="overflow:hidden"/><g class="edge"/></g><g class="controls"><g class="dockers"/><g class="magnets"/></g></g><g id="_91EA174E-CDBF-4087-9063-C413FA6622F9" bpmn2nodeid="_34BB81A4-159E-4F9D-ABDA-A12E06F50484"><g class="stencils"><g class="me"><g pointer-events="painted" bpmn2nodeid="_34BB81A4-159E-4F9D-ABDA-A12E06F50484"><path id="_91EA174E-CDBF-4087-9063-C413FA6622F9_1" d="M490.84375 180L534.15625 180 " stroke="#000000" fill="none" stroke-width="2" stroke-linecap="round" stroke-linejoin="round" marker-start="url(#_91EA174E-CDBF-4087-9063-C413FA6622F9start)" marker-end="url(#_91EA174E-CDBF-4087-9063-C413FA6622F9end)"/></g><text id="_91EA174E-CDBF-4087-9063-C413FA6622F9text_name" font-size="12" x="504.84375" y="166" oryx:edgePosition="startTop" stroke-width="0pt" letter-spacing="-0.01px" fill="#000000" text-anchor="start" transform="rotate(360 490.84375 180)" visibility="inherit" oryx:fontSize="12"/></g><g class="children" style="overflow:hidden"/><g class="edge"/></g><g class="controls"><g class="dockers"/><g class="magnets"/></g></g><g id="_0ED13555-C8D3-4F73-8FF6-EA3E8FE51140" bpmn2nodeid="_32ED35E0-CDE1-4D25-838D-324F437D685E"><g class="stencils"><g class="me"><g pointer-events="painted" bpmn2nodeid="_32ED35E0-CDE1-4D25-838D-324F437D685E"><path id="_0ED13555-C8D3-4F73-8FF6-EA3E8FE51140_1" d="M635.390625 180L679.375 180 " stroke="#000000" fill="none" stroke-width="2" stroke-linecap="round" stroke-linejoin="round" marker-start="url(#_0ED13555-C8D3-4F73-8FF6-EA3E8FE51140start)" marker-end="url(#_0ED13555-C8D3-4F73-8FF6-EA3E8FE51140end)"/></g><text id="_0ED13555-C8D3-4F73-8FF6-EA3E8FE51140text_name" font-size="12" x="649.390625" y="166" oryx:edgePosition="startTop" stroke-width="0pt" letter-spacing="-0.01px" fill="#000000" text-anchor="start" transform="rotate(360 635.390625 180)" visibility="inherit" oryx:fontSize="12"/></g><g class="children" style="overflow:hidden"/><g class="edge"/></g><g class="controls"><g class="dockers"/><g class="magnets"/></g></g></g><text id="_3104791A-A199-4151-901D-BD4005BE80E2" style="stroke-width:1;fill:rgb(177,194,214);font-family:arial;font-weight:bold" font-size="12" onclick="ORYX.Plugins.CanvasTitle.openTextualAnalysis()" onmouseover="ORYX.Plugins.CanvasTitle.addToolTip('_3104791A-A199-4151-901D-BD4005BE80E2')" transform="translate(10, 20)">MMCP v.1.0 (TestMultipleChase.MMCP)</text></g></g></svg>