<svg xmlns="http://www.w3.org/2000/svg" xmlns:oryx="http://oryx-editor.org" id="_A1945A52-F28F-453E-A620-B09DDF043AD7" width="424" height="265" xmlns:xlink="http://www.w3.org/1999/xlink" xmlns:svg="http://www.w3.org/2000/svg"><defs><marker id="_F8AABF94-F5A4-4CBB-8766-D36F5E12DDC9start" refX="1" refY="5" markerUnits="userSpaceOnUse" markerWidth="17" markerHeight="11" orient="auto" fill="#000000" stroke="#000000"> 	  		<path id="_F8AABF94-F5A4-4CBB-8766-D36F5E12DDC9conditional" d="M 0 5 L 8 0 L 16 5 L 8 10 L 0 5" fill="white" stroke="#000000" stroke-width="1" display="none"/> 			<path id="_F8AABF94-F5A4-4CBB-8766-D36F5E12DDC9default" d="M 5 0 L 11 10" fill="white" stroke="#000000" stroke-width="1" display="none"/> 	  	</marker><marker id="_F8AABF94-F5A4-4CBB-8766-D36F5E12DDC9end" refX="15" refY="6" markerUnits="userSpaceOnUse" markerWidth="15" markerHeight="12" orient="auto" fill="#000000" stroke="#000000"> 	  		<path id="_F8AABF94-F5A4-4CBB-8766-D36F5E12DDC9frame2" d="M 0 1 L 15 6 L 0 11z" fill="#000000" stroke="#000000" stroke-linejoin="round" stroke-width="2"/> 	  	</marker><marker id="_4BF750DD-8130-472F-B5A9-225863018B62start" refX="1" refY="5" markerUnits="userSpaceOnUse" markerWidth="17" markerHeight="11" orient="auto" fill="#000000" stroke="#000000"> 	  		<path id="_4BF750DD-8130-472F-B5A9-225863018B62conditional" d="M 0 5 L 8 0 L 16 5 L 8 10 L 0 5" fill="white" stroke="#000000" stroke-width="1" display="none"/> 			<path id="_4BF750DD-8130-472F-B5A9-225863018B62default" d="M 5 0 L 11 10" fill="white" stroke="#000000" stroke-width="1" display="none"/> 	  	</marker><marker id="_4BF750DD-8130-472F-B5A9-225863018B62end" refX="15" refY="6" markerUnits="userSpaceOnUse" markerWidth="15" markerHeight="12" orient="auto" fill="#000000" stroke="#000000"> 	  		<path id="_4BF750DD-8130-472F-B5A9-225863018B62frame2" d="M 0 1 L 15 6 L 0 11z" fill="#000000" stroke="#000000" stroke-linejoin="round" stroke-width="2"/> 	  	</marker></defs><g stroke="none" font-family="Verdana, sans-serif" font-size-adjust="none" font-style="normal" font-variant="normal" font-weight="normal" line-heigth="normal" font-size="12"><g class="stencils" transform="translate(15, 16)"><g class="me"/><g class="children"><g id="_CF6C4786-860E-4E07-BC65-EC477CDCED46" bpmn2nodeid="processStartEvent"><g class="stencils" transform="translate(120, 165)"><g class="me"><g pointer-events="fill" id="_CF6C4786-860E-4E07-BC65-EC477CDCED46">        <defs id="_CF6C4786-860E-4E07-BC65-EC477CDCED46__CF6C4786-860E-4E07-BC65-EC477CDCED46_5"> 		<radialGradient id="_CF6C4786-860E-4E07-BC65-EC477CDCED46background" cx="10%" cy="10%" r="100%" fx="10%" fy="10%"> 			<stop offset="0%" stop-color="#ffffff" stop-opacity="1" id="_CF6C4786-860E-4E07-BC65-EC477CDCED46__CF6C4786-860E-4E07-BC65-EC477CDCED46_6"/> 			<stop id="_CF6C4786-860E-4E07-BC65-EC477CDCED46fill_el" offset="100%" stop-color="#9acd32" stop-opacity="1"/> 		</radialGradient> 	</defs> 	     <circle id="_CF6C4786-860E-4E07-BC65-EC477CDCED46bg_frame" cx="15" cy="15" r="15" stroke="#000000" fill="url(#_CF6C4786-860E-4E07-BC65-EC477CDCED46background) white" stroke-width="1" style="stroke-dasharray: 5.5, 3"/>      <circle id="_CF6C4786-860E-4E07-BC65-EC477CDCED46frame" cx="15" cy="15" r="15" stroke="#000000" fill="none" stroke-width="1" display="inherit"/>  	<text font-size="11" id="_CF6C4786-860E-4E07-BC65-EC477CDCED46text_name" x="15" y="32" oryx:align="top center" stroke="black" stroke-width="0pt" letter-spacing="-0.01px" fill="#000000" text-anchor="middle" transform="rotate(0 15 32)" visibility="inherit" oryx:fontSize="11"/>   </g></g><g class="children" style="overflow:hidden"/><g class="edge"/></g><g class="controls"><g class="dockers"/><g class="magnets" transform="translate(120, 165)"><g pointer-events="all" display="none" transform="translate(7, 7)"><circle cx="8" cy="8" r="4" stroke="none" fill="red" fill-opacity="0.3"/></g></g></g></g><g id="_761AD2EC-1F26-45C2-8C07-F131F81AC02B" bpmn2nodeid="_FD94F293-1DC8-46C5-B7DF-F48D668E26D5"><g class="stencils" transform="translate(195, 160)"><g class="me"><g id="_761AD2EC-1F26-45C2-8C07-F131F81AC02B">      <defs id="_761AD2EC-1F26-45C2-8C07-F131F81AC02B__761AD2EC-1F26-45C2-8C07-F131F81AC02B_4"> 		<radialGradient id="_761AD2EC-1F26-45C2-8C07-F131F81AC02Bbackground" cx="10%" cy="10%" r="100%" fx="10%" fy="10%"> 			<stop offset="0%" stop-color="#ffffff" stop-opacity="1" id="_761AD2EC-1F26-45C2-8C07-F131F81AC02B__761AD2EC-1F26-45C2-8C07-F131F81AC02B_5"/> 			<stop id="_761AD2EC-1F26-45C2-8C07-F131F81AC02Bfill_el" offset="100%" stop-color="#f0e68c" stop-opacity="1"/> 		</radialGradient> 	</defs> 	     <path d=" M0 20.5  L20.5 0  L40 20.5  L20.5 40  z" id="_761AD2EC-1F26-45C2-8C07-F131F81AC02Bbg_frame" fill="url(#_761AD2EC-1F26-45C2-8C07-F131F81AC02Bbackground) white" style="stroke-width:1" stroke="#a67f00"/>     <path id="_761AD2EC-1F26-45C2-8C07-F131F81AC02Bframe" d=" M11.25 20.5  L30.25 20.5  M20.5 11.25  L20.5 30.25 " style="fill:none;stroke-width:3" stroke="#a67f00"/>      	<text id="_761AD2EC-1F26-45C2-8C07-F131F81AC02Btext_name" x="30.5" y="30.5" oryx:align="left top" stroke-width="0pt" letter-spacing="-0.01px" fill="#000000" text-anchor="start" transform="rotate(0 30.5 30.5)" visibility="inherit" oryx:fontSize="12"/> 	   </g></g><g class="children" style="overflow:hidden"/><g class="edge"/></g><g class="controls"><g class="dockers"/><g class="magnets" transform="translate(195, 160)"><g pointer-events="all" display="none" transform="translate(12.5, 12.5)"><circle cx="8" cy="8" r="4" stroke="none" fill="red" fill-opacity="0.3"/></g></g></g></g><g id="_29B8EE8B-96D8-4719-BD80-E11DC2267B7A" bpmn2nodeid="_7650BBD1-FBC3-48B4-81D5-A1E7D1775992"><g class="stencils" transform="translate(280, 140)"><g class="me"><g pointer-events="fill" oryx:minimumSize="50 40" id="_29B8EE8B-96D8-4719-BD80-E11DC2267B7A">   	<defs id="_29B8EE8B-96D8-4719-BD80-E11DC2267B7A__29B8EE8B-96D8-4719-BD80-E11DC2267B7A_17"> 		<radialGradient id="_29B8EE8B-96D8-4719-BD80-E11DC2267B7Abackground" cx="10%" cy="10%" r="100%" fx="10%" fy="10%"> 			<stop offset="0%" stop-color="#ffffff" stop-opacity="1" id="_29B8EE8B-96D8-4719-BD80-E11DC2267B7A__29B8EE8B-96D8-4719-BD80-E11DC2267B7A_18"/> 			<stop id="_29B8EE8B-96D8-4719-BD80-E11DC2267B7Afill_el" offset="100%" stop-color="#3366FF" stop-opacity="1"/> 		</radialGradient> 		<radialGradient id="_29B8EE8B-96D8-4719-BD80-E11DC2267B7Aborderbackground" cx="10%" cy="10%" r="100%" fx="10%" fy="10%"> 			<stop offset="0%" stop-color="#ffffff" stop-opacity="1" id="_29B8EE8B-96D8-4719-BD80-E11DC2267B7A__29B8EE8B-96D8-4719-BD80-E11DC2267B7A_19"/> 			<stop id="_29B8EE8B-96D8-4719-BD80-E11DC2267B7Afill_border" offset="100%" stop-color="#000000" stop-opacity="1" stroke="#000000"/> 		</radialGradient> 	</defs> 	 	<rect id="_29B8EE8B-96D8-4719-BD80-E11DC2267B7Atext_frame" oryx:anchors="bottom top right left" x="1" y="1" width="94" height="79" rx="10" ry="10" stroke="none" stroke-width="0" fill="none"/> 	<rect id="_29B8EE8B-96D8-4719-BD80-E11DC2267B7Abg_frame" oryx:resize="vertical horizontal" x="0" y="0" width="100" height="80" rx="10" ry="10" stroke="#000000" stroke-width="1" fill="url(#_29B8EE8B-96D8-4719-BD80-E11DC2267B7Abackground) #ffffcc"/> 		<text font-size="12" id="_29B8EE8B-96D8-4719-BD80-E11DC2267B7Atext_name" x="50" y="40" oryx:align="middle center" oryx:fittoelem="text_frame" stroke="black" text-anchor="middle" stroke-width="0pt" letter-spacing="-0.01px" fill="#000000" transform="rotate(0 50 40)" visibility="inherit" oryx:fontSize="12"><tspan x="50" y="40" dy="5">CMList</tspan></text>     <g id="_29B8EE8B-96D8-4719-BD80-E11DC2267B7AmanualTask" transform="scale(0.7,0.7) translate(8,8)" display="none">     	<path oryx:anchors="top left" id="_29B8EE8B-96D8-4719-BD80-E11DC2267B7Aframe" style="opacity:1;fill:none;fill-opacity:1;stroke-width:1" d="M0.5,3.751l4.083-3.25c0,0,11.166,0.083,12.083,0.083s-2.417,2.917-1.5,2.917     s11.667,0,12.584,0c1.166,1.708-0.168,3.167-0.834,3.667s0.875,1.917-1,4.417c-0.75,0.25,0.75,1.875-1.333,3.333     c-1.167,0.583,0.583,1.542-1.25,2.833c-1.167,0-20.833,0.083-20.833,0.083l-2-1.333V3.751z" stroke="#000000"/> 		<path id="_29B8EE8B-96D8-4719-BD80-E11DC2267B7Aframe2" oryx:anchors="top left" style="opacity:1;fill:none;stroke-width:2" d="M 13.5 7 L 27 7" stroke="#000000"/> 		<path id="_29B8EE8B-96D8-4719-BD80-E11DC2267B7Aframe3" oryx:anchors="top left" style="opacity:1;fill:none;stroke-width:2" d="M 13.5 11 L 26 11" stroke="#000000"/> 		<path id="_29B8EE8B-96D8-4719-BD80-E11DC2267B7Aframe4" oryx:anchors="top left" style="opacity:1;fill:none;stroke-width:1.5" d="M 14 14.5 L 25 14.5" stroke="#000000"/> 		<path id="_29B8EE8B-96D8-4719-BD80-E11DC2267B7Aframe5" oryx:anchors="top left" style="opacity:1;fill:none;stroke-width:1.5" d="M 8.2 3.1 L 15 3.1" stroke="#000000"/> 	</g> 	 	<g id="_29B8EE8B-96D8-4719-BD80-E11DC2267B7AbusinessRuleTask" transform="scale(0.7,0.7) translate(8,8)" display="none"> 		<rect id="_29B8EE8B-96D8-4719-BD80-E11DC2267B7Aframe6" oryx:anchors="top left" x="0" y="0" width="22" height="4" style="opacity:1;fill:#B3B1B3;fill-opacity:1;" stroke="#000000"/> 		<rect id="_29B8EE8B-96D8-4719-BD80-E11DC2267B7Aframe7" oryx:anchors="top left" x="0" y="4" style="opacity:1;fill:none;" width="22" height="12" stroke="#000000"/> 		<path id="_29B8EE8B-96D8-4719-BD80-E11DC2267B7Aframe8" oryx:anchors="top left" style="opacity:1;fill:none;" d="M 0 10 L 22 10" stroke="#000000"/> 		<path id="_29B8EE8B-96D8-4719-BD80-E11DC2267B7Aframe9" oryx:anchors="top left" style="opacity:1; fill:none;" d="M 7 4 L 7 16" stroke="#000000"/> 	</g> 	 	<g id="_29B8EE8B-96D8-4719-BD80-E11DC2267B7AscriptTask" transform="scale(0.7,0.7) translate(8,8)" display="none"> 		<path oryx:anchors="top left" id="_29B8EE8B-96D8-4719-BD80-E11DC2267B7Aframe10" style="opacity:1;fill:none;" stroke="#000000" d="M6.402,0.5h14.5c0,0-5.833,2.833-5.833,5.583s4.417,6,4.417,9.167    s-4.167,5.083-4.167,5.083H0.235c0,0,5-2.667,5-5s-4.583-6.75-4.583-9.25S6.402,0.5,6.402,0.5z"/> 		<path oryx:anchors="top left" id="_29B8EE8B-96D8-4719-BD80-E11DC2267B7Aframe11" style="opacity:1;fill:none;stroke-width:1.5" d="M 3.5 4.5 L 13.5 4.5" stroke="#000000"/> 		<path oryx:anchors="top left" id="_29B8EE8B-96D8-4719-BD80-E11DC2267B7Aframe12" style="opacity:1;fill:none;stroke-width:1.5" d="M 3.8 8.5 L 13.8 8.5" stroke="#000000"/> 		<path oryx:anchors="top left" id="_29B8EE8B-96D8-4719-BD80-E11DC2267B7Aframe13" style="opacity:1;fill:none;stroke-width:1.5" d="M 6.3 12.5 L 16.3 12.5" stroke="#000000"/> 		<path oryx:anchors="top left" id="_29B8EE8B-96D8-4719-BD80-E11DC2267B7Aframe14" style="opacity:1;fill:none;stroke-width:1.5" d="M 6.5 16.5 L 16.5 16.5" stroke="#000000"/> 	</g> 	 	<g id="_29B8EE8B-96D8-4719-BD80-E11DC2267B7AuserTask" transform="scale(0.7,0.7) translate(8,8)" display="inherit"> 		<path id="_29B8EE8B-96D8-4719-BD80-E11DC2267B7Aframe15" oryx:anchors="top left" style="opacity:1;fill:#F4F6F7" stroke="#000000" d="M0.585,24.167h24.083v-7.833c0,0-2.333-3.917-7.083-5.167h-9.25    c-4.417,1.333-7.833,5.75-7.833,5.75L0.585,24.167z"/> 		<path id="_29B8EE8B-96D8-4719-BD80-E11DC2267B7Aframe16" oryx:anchors="top left" style="opacity:1;fill:none" d="M 6 20 L 6 24" stroke="#000000"/> 		<path id="_29B8EE8B-96D8-4719-BD80-E11DC2267B7Aframe17" oryx:anchors="top left" style="opacity:1;fill:none" d="M 20 20 L 20 24" stroke="#000000"/> 		<circle id="_29B8EE8B-96D8-4719-BD80-E11DC2267B7Aframe18" oryx:anchors="top left" fill="black" cx="13.002" cy="5.916" r="5.417" stroke="#000000"/> 		<path id="_29B8EE8B-96D8-4719-BD80-E11DC2267B7Aframe19" oryx:anchors="top left" style="opacity:1;fill:#F0EFF0;" stroke="#000000" d="M8.043,7.083c0,0,2.814-2.426,5.376-1.807s4.624-0.693,4.624-0.693    c0.25,1.688,0.042,3.75-1.458,5.584c0,0,1.083,0.75,1.083,1.5s0.125,1.875-1,3s-5.5,1.25-6.75,0S8.668,12.834,8.668,12    s0.583-1.25,1.25-1.917C8.835,9.5,7.419,7.708,8.043,7.083z"/> 	</g> 	 	<g id="_29B8EE8B-96D8-4719-BD80-E11DC2267B7AserviceTask" transform="scale(0.7,0.7) translate(8,8)" display="none"> 		<polygon oryx:anchors="top left" id="_29B8EE8B-96D8-4719-BD80-E11DC2267B7Aframe20" style="opacity:1;fill:#ffffff" stroke="#000000" points="15.392,5.064 17.954,2.502 20.347,4.895 17.786,7.455     18.729,9.732 22.353,9.732 22.353,13.115 18.731,13.115 17.788,15.392 20.351,17.955 17.958,20.347 15.397,17.786 13.12,18.729     13.12,22.353 9.737,22.353 9.737,18.731 7.46,17.788 4.897,20.35 2.506,17.958 5.066,15.397 4.124,13.12 0.5,13.12 0.5,9.737     4.121,9.737 5.065,7.461 2.503,4.898 4.895,2.506 7.455,5.066 9.732,4.125 9.732,0.5 13.116,0.5 13.116,4.121 "/> 		<circle oryx:anchors="top left" id="_29B8EE8B-96D8-4719-BD80-E11DC2267B7Aframe21" style="opacity:1;fill:none" stroke="#000000" cx="11.427" cy="11.426" r="3.714"/> 		<polygon oryx:anchors="top left" id="_29B8EE8B-96D8-4719-BD80-E11DC2267B7Aframe22" style="opacity:1;fill:#ffffff" stroke="#000000" points="21.392,11.064 23.954,8.502 26.347,10.895 23.786,13.455     24.729,15.732 28.353,15.732 28.353,19.115 24.731,19.115 23.788,21.392 26.351,23.955 23.958,26.347 21.397,23.786 19.12,24.729     19.12,28.353 15.737,28.353 15.737,24.731 13.46,23.788 10.897,26.35 8.506,23.958 11.066,21.397 10.124,19.12 6.5,19.12     6.5,15.737 10.121,15.737 11.065,13.461 8.503,10.898 10.895,8.506 13.455,11.066 15.732,10.125 15.732,6.5 19.116,6.5     19.116,10.121 "/> 		<circle oryx:anchors="top left" id="_29B8EE8B-96D8-4719-BD80-E11DC2267B7Aframe23" style="opacity:1;fill:none;" stroke="#000000" cx="17.427" cy="17.426" r="3.714"/> 	</g> 	 	<g id="_29B8EE8B-96D8-4719-BD80-E11DC2267B7AsendTask" display="none"> 		<path id="_29B8EE8B-96D8-4719-BD80-E11DC2267B7Astframe24" oryx:anchors="left top" stroke="#FFFFFF" fill="black" stroke-width="1" d="M8,11 L8,21 L24,21 L24,11 L16,17z"/> 		<path id="_29B8EE8B-96D8-4719-BD80-E11DC2267B7Astframe25" oryx:anchors="left top" stroke="#FFFFFF" fill="black" stroke-width="1" d="M7,10 L16,17 L25 10z"/> 	</g> 	 	<g id="_29B8EE8B-96D8-4719-BD80-E11DC2267B7AreceiveTask" display="none"> 		<path id="_29B8EE8B-96D8-4719-BD80-E11DC2267B7Aframe26" oryx:anchors="left top" stroke="#000000" fill="none" stroke-width="1" d="M8,11 L8,21 L24,21 L24,11z M8,11 L16,17 L24,11"/> 	</g> 	 	<g id="_29B8EE8B-96D8-4719-BD80-E11DC2267B7Anone" display="none"/>  	<g id="_29B8EE8B-96D8-4719-BD80-E11DC2267B7Asequential" display="none">         <path oryx:anchors="bottom" fill="none" stroke="#000000" stroke-width="2" d="M46,76h10M46,72h10 M46,68h10" id="_29B8EE8B-96D8-4719-BD80-E11DC2267B7A__29B8EE8B-96D8-4719-BD80-E11DC2267B7A_20"/>     </g>   </g></g><g class="children" style="overflow:hidden"/><g class="edge"/></g><g class="controls"><g class="dockers"/><g class="magnets" transform="translate(280, 140)"><g pointer-events="all" display="none" transform="translate(-7, 12)"><circle cx="8" cy="8" r="4" stroke="none" fill="red" fill-opacity="0.3"/></g><g pointer-events="all" display="none" transform="translate(-7, 32)"><circle cx="8" cy="8" r="4" stroke="none" fill="red" fill-opacity="0.3"/></g><g pointer-events="all" display="none" transform="translate(-7, 52)"><circle cx="8" cy="8" r="4" stroke="none" fill="red" fill-opacity="0.3"/></g><g pointer-events="all" display="none" transform="translate(17, 71)"><circle cx="8" cy="8" r="4" stroke="none" fill="red" fill-opacity="0.3"/></g><g pointer-events="all" display="none" transform="translate(42, 71)"><circle cx="8" cy="8" r="4" stroke="none" fill="red" fill-opacity="0.3"/></g><g pointer-events="all" display="none" transform="translate(67, 71)"><circle cx="8" cy="8" r="4" stroke="none" fill="red" fill-opacity="0.3"/></g><g pointer-events="all" display="none" transform="translate(91, 12)"><circle cx="8" cy="8" r="4" stroke="none" fill="red" fill-opacity="0.3"/></g><g pointer-events="all" display="none" transform="translate(91, 32)"><circle cx="8" cy="8" r="4" stroke="none" fill="red" fill-opacity="0.3"/></g><g pointer-events="all" display="none" transform="translate(91, 52)"><circle cx="8" cy="8" r="4" stroke="none" fill="red" fill-opacity="0.3"/></g><g pointer-events="all" display="none" transform="translate(17, -7)"><circle cx="8" cy="8" r="4" stroke="none" fill="red" fill-opacity="0.3"/></g><g pointer-events="all" display="none" transform="translate(42, -7)"><circle cx="8" cy="8" r="4" stroke="none" fill="red" fill-opacity="0.3"/></g><g pointer-events="all" display="none" transform="translate(67, -7)"><circle cx="8" cy="8" r="4" stroke="none" fill="red" fill-opacity="0.3"/></g><g pointer-events="all" display="none" transform="translate(42, 32)"><circle cx="8" cy="8" r="4" stroke="none" fill="red" fill-opacity="0.3"/></g></g></g></g></g><g class="edge"><g id="_F8AABF94-F5A4-4CBB-8766-D36F5E12DDC9" bpmn2nodeid="_702E23F8-B3DA-40D4-B5BA-803C4FE6B13F"><g class="stencils"><g class="me"><g pointer-events="painted" bpmn2nodeid="_702E23F8-B3DA-40D4-B5BA-803C4FE6B13F"><path id="_F8AABF94-F5A4-4CBB-8766-D36F5E12DDC9_1" d="M150.46482446117886 180.0960548103179L194.37501928882116 180.3687889396821 " stroke="#000000" fill="none" stroke-width="2" stroke-linecap="round" stroke-linejoin="round" marker-start="url(#_F8AABF94-F5A4-4CBB-8766-D36F5E12DDC9start)" marker-end="url(#_F8AABF94-F5A4-4CBB-8766-D36F5E12DDC9end)"/></g><text id="_F8AABF94-F5A4-4CBB-8766-D36F5E12DDC9text_name" font-size="12" x="164.46482446117886" y="166.0960548103179" oryx:edgePosition="startTop" stroke-width="0pt" letter-spacing="-0.01px" fill="#000000" text-anchor="start" transform="rotate(0.35586983062182753 150.46482446117886 180.0960548103179)" visibility="inherit" oryx:fontSize="12"/></g><g class="children" style="overflow:hidden"/><g class="edge"/></g><g class="controls"><g class="dockers"/><g class="magnets"/></g></g><g id="_4BF750DD-8130-472F-B5A9-225863018B62" bpmn2nodeid="_636E3B61-9376-46E2-9F0B-DC6A6059CA31"><g class="stencils"><g class="me"><g pointer-events="painted" bpmn2nodeid="_636E3B61-9376-46E2-9F0B-DC6A6059CA31"><path id="_4BF750DD-8130-472F-B5A9-225863018B62_1" d="M235.28514671561186 180.41360197940782L279.80079078438814 180.21921052059218 " stroke="#000000" fill="none" stroke-width="2" stroke-linecap="round" stroke-linejoin="round" marker-start="url(#_4BF750DD-8130-472F-B5A9-225863018B62start)" marker-end="url(#_4BF750DD-8130-472F-B5A9-225863018B62end)"/></g><text id="_4BF750DD-8130-472F-B5A9-225863018B62text_name" font-size="12" x="249.28514671561186" y="166.41360197940782" oryx:edgePosition="startTop" stroke-width="0pt" letter-spacing="-0.01px" fill="#000000" text-anchor="start" transform="rotate(359.74980167980243 235.28514671561186 180.41360197940782)" visibility="inherit" oryx:fontSize="12"/></g><g class="children" style="overflow:hidden"/><g class="edge"/></g><g class="controls"><g class="dockers"/><g class="magnets"/></g></g></g><text id="_D110F517-2291-4370-B6FB-4111243A3258" style="stroke-width:1;fill:rgb(177,194,214);font-family:arial;font-weight:bold" font-size="12" onclick="ORYX.Plugins.CanvasTitle.openTextualAnalysis()" onmouseover="ORYX.Plugins.CanvasTitle.addToolTip('_D110F517-2291-4370-B6FB-4111243A3258')" transform="translate(10, 20)">MVPProcess v.1.0 (MRRBPMProject.MVPProcess)</text></g></g></svg>